<svg width="20" height="20" viewBox="0 0 20 20" fill="none" xmlns="http://www.w3.org/2000/svg">
<path d="M10.8301 15.6589L10.8301 6.35054L14.8968 10.4172C15.2218 10.7422 15.7551 10.7422 16.0801 10.4172C16.1573 10.3401 16.2186 10.2485 16.2604 10.1477C16.3023 10.0469 16.3238 9.93885 16.3238 9.82971C16.3238 9.72057 16.3023 9.6125 16.2604 9.51169C16.2186 9.41088 16.1573 9.3193 16.0801 9.24221L10.5884 3.75054C10.5113 3.67329 10.4198 3.612 10.3189 3.57018C10.2181 3.52836 10.1101 3.50684 10.0009 3.50684C9.89178 3.50684 9.78371 3.52836 9.6829 3.57018C9.58209 3.612 9.49052 3.67329 9.41342 3.75054L3.92175 9.24221C3.8446 9.31936 3.7834 9.41095 3.74165 9.51175C3.69989 9.61256 3.6784 9.7206 3.6784 9.82971C3.6784 9.93882 3.69989 10.0469 3.74165 10.1477C3.7834 10.2485 3.8446 10.3401 3.92175 10.4172C3.9989 10.4944 4.0905 10.5556 4.1913 10.5973C4.29211 10.6391 4.40015 10.6606 4.50926 10.6606C4.61836 10.6606 4.7264 10.6391 4.82721 10.5973C4.92801 10.5556 5.0196 10.4944 5.09675 10.4172L9.16342 6.35054L9.16342 15.6589C9.16342 16.1172 9.53842 16.4922 9.99675 16.4922C10.4551 16.4922 10.8301 16.1172 10.8301 15.6589Z" fill="#1D1D1B"/>
</svg>
