<svg width="20" height="20" viewBox="0 0 20 20" fill="none" xmlns="http://www.w3.org/2000/svg">
<path d="M4.341 10.83L13.6493 10.83L9.58267 14.8967C9.25767 15.2217 9.25767 15.755 9.58267 16.08C9.65977 16.1573 9.75134 16.2186 9.85215 16.2604C9.95296 16.3022 10.061 16.3237 10.1702 16.3237C10.2793 16.3237 10.3874 16.3022 10.4882 16.2604C10.589 16.2186 10.6806 16.1573 10.7577 16.08L16.2493 10.5884C16.3266 10.5113 16.3879 10.4197 16.4297 10.3189C16.4715 10.2181 16.493 10.11 16.493 10.0009C16.493 9.89172 16.4715 9.78365 16.4297 9.68284C16.3879 9.58203 16.3266 9.49045 16.2493 9.41336L10.7577 3.92169C10.6805 3.84454 10.5889 3.78334 10.4881 3.74159C10.3873 3.69983 10.2793 3.67834 10.1702 3.67834C10.0611 3.67834 9.95302 3.69983 9.85222 3.74159C9.75142 3.78334 9.65982 3.84454 9.58267 3.92169C9.50552 3.99884 9.44432 4.09044 9.40257 4.19124C9.36081 4.29204 9.33932 4.40008 9.33932 4.50919C9.33932 4.6183 9.36081 4.72634 9.40257 4.82715C9.44432 4.92795 9.50552 5.01954 9.58267 5.09669L13.6493 9.16336L4.341 9.16336C3.88267 9.16336 3.50767 9.53836 3.50767 9.99669C3.50767 10.455 3.88267 10.83 4.341 10.83Z" fill="#1D1D1B"/>
</svg>
